<?xml version="1.0" encoding="utf-8"?>
<!-- Generator: Adobe Illustrator 17.0.0, SVG Export Plug-In . SVG Version: 6.00 Build 0)  -->
<!DOCTYPE svg PUBLIC "-//W3C//DTD SVG 1.1//EN" "http://www.w3.org/Graphics/SVG/1.1/DTD/svg11.dtd">
<svg version="1.1" id="Layer_1" xmlns="http://www.w3.org/2000/svg" xmlns:xlink="http://www.w3.org/1999/xlink" x="0px" y="0px"
	 width="24px" height="24px" viewBox="0 0 24 24" enable-background="new 0 0 24 24" xml:space="preserve">
<g>
	<rect fill="none" width="24" height="24"/>
	<path d="M20.3470909,6.05683636 C20.1926727,5.84945455 19.9493455,5.72727273 19.6908545,5.72727273 L7.08981818,5.72727273 L6.86765455,3.72785455 C6.82161818,3.31347273 6.47138182,3 6.05449091,3 L3.87267273,3 C3.42081818,3 3.05449091,3.36632727 3.05449091,3.81818182 C3.05449091,4.27003636 3.42081818,4.63636364 3.87267273,4.63636364 L5.32216364,4.63636364 L5.54329091,6.62645455 C5.54394545,6.63338182 5.54470909,6.64025455 5.54558182,6.64712727 L6.33218182,13.7266909 C6.37821818,14.1410727 6.72850909,14.4545455 7.1454,14.4545455 L17.5692545,14.4545455 C17.9307818,14.4545455 18.2494909,14.2172182 18.3530727,13.8709091 L20.4747273,6.78 C20.5488,6.53230909 20.5014545,6.26416364 20.3470909,6.05683636 Z M16.9600364,12.8181818 L7.87772727,12.8181818 L7.27161818,7.36363636 L18.5919818,7.36363636 L16.9600364,12.8181818 Z" id="Shape" fill="#000000" fill-rule="nonzero"></path>
	<path d="M8.78176364,16.0908 C7.42832727,16.0908 6.32721818,17.1919091 6.32721818,18.5453455 C6.32721818,19.8988364 7.42832727,20.9998909 8.78176364,20.9998909 C10.1352,20.9998909 11.2363091,19.8988364 11.2363091,18.5453455 C11.2363091,17.1919091 10.1352,16.0908 8.78176364,16.0908 Z M8.78176364,19.3635273 C8.33061818,19.3635273 7.96358182,18.9965455 7.96358182,18.5453455 C7.96358182,18.0942 8.33061818,17.7271636 8.78176364,17.7271636 C9.23290909,17.7271636 9.59994545,18.0942 9.59994545,18.5453455 C9.59994545,18.9965455 9.23290909,19.3635273 8.78176364,19.3635273 Z" id="Shape" fill="#000000" fill-rule="nonzero"></path>
	<path d="M15.2726727,16.0908 C13.9191818,16.0908 12.8181273,17.1919091 12.8181273,18.5453455 C12.8181273,19.8988364 13.9191818,20.9998909 15.2726727,20.9998909 C16.6261636,20.9998909 17.7272182,19.8988364 17.7272182,18.5453455 C17.7272182,17.1919091 16.6261091,16.0908 15.2726727,16.0908 Z M15.2726727,19.3635273 C14.8215273,19.3635273 14.4544909,18.9965455 14.4544909,18.5453455 C14.4544909,18.0942 14.8215273,17.7271636 15.2726727,17.7271636 C15.7238182,17.7271636 16.0908545,18.0942 16.0908545,18.5453455 C16.0908545,18.9965455 15.7238182,19.3635273 15.2726727,19.3635273 Z" id="Shape" fill="#000000" fill-rule="nonzero"></path>
</g>
</svg>
