<?xml version="1.0" encoding="utf-8"?>
<!DOCTYPE svg PUBLIC "-//W3C//DTD SVG 1.1//EN" "http://www.w3.org/Graphics/SVG/1.1/DTD/svg11.dtd">
<svg version="1.1" id="Layer_1" xmlns="http://www.w3.org/2000/svg" xmlns:xlink="http://www.w3.org/1999/xlink" x="0px" y="0px"
	 width="24px" height="24px" viewBox="0 0 24 24" enable-background="new 0 0 24 24" xml:space="preserve">
<g>
	<rect fill="none" width="24" height="24"/>
	<path d="M18.39505,3 L4.8685,3 C4.4005,3 4.0216,3.37935 4.0216,3.8469 L4.0216,20.11755 C4.0216,20.5842 4.4005,20.964 4.8685,20.964 L18.3955,20.964 C18.86395,20.964 19.24285,20.5842 19.24285,20.11755 L19.24285,3.8469 C19.2415,3.37935 18.8635,3 18.39505,3 Z M17.54815,19.2702 L5.7154,19.2702 L5.7154,4.6938 L17.5486,4.6938 L17.5486,19.2702 L17.54815,19.2702 Z" id="Shape" fill="#000000" fill-rule="nonzero"></path>
    <path d="M11.6311,14.6568 C14.0044,14.6568 15.93535,12.72585 15.93535,10.35255 L15.93535,6.89475 C15.93535,6.4272 15.55645,6.04785 15.08845,6.04785 C14.6209,6.04785 14.242,6.4272 14.242,6.89475 L14.242,10.35255 C14.242,11.7921 13.0702,12.9639 11.63065,12.9639 C10.1911,12.9639 9.01975,11.7921 9.01975,10.35255 L9.01975,6.89475 C9.01975,6.4272 8.6404,6.04785 8.17285,6.04785 C7.70485,6.04785 7.32595,6.4272 7.32595,6.89475 L7.32595,10.35255 C7.3273,12.72585 9.25825,14.6568 11.6311,14.6568 Z" id="Shape" fill="#000000" fill-rule="nonzero"></path>
</g>
</svg>
