<?xml version="1.0" encoding="utf-8"?>
<!DOCTYPE svg PUBLIC "-//W3C//DTD SVG 1.1//EN" "http://www.w3.org/Graphics/SVG/1.1/DTD/svg11.dtd">
<svg version="1.1" id="Layer_1" xmlns="http://www.w3.org/2000/svg" xmlns:xlink="http://www.w3.org/1999/xlink" x="0px" y="0px"
	 width="24px" height="24px" viewBox="0 0 24 24" enable-background="new 0 0 24 24" xml:space="preserve">
<g>
	<rect fill="none" width="24" height="24"/>
	<path d="M20.9581558,19.4649506 L20.0524052,4.49596364 C20.0027065,3.67483636 19.2900935,3.00383377 18.4611584,3.00383377 L5.50845195,3.00383377 C4.67273766,3.00383377 3.96671688,3.67189091 3.91641039,4.49596364 L3.00280519,19.4649506 C2.95268571,20.2860779 3.58315325,20.9570805 4.41138701,20.9570805 L19.5487792,20.9570805 C20.3814078,20.9570805 21.0079948,20.2890234 20.9581558,19.4649506 Z M5.03198961,18.9623065 L5.88425455,4.99865455 L18.084374,4.99865455 L18.9292987,18.9623065 L5.03198961,18.9623065 Z" id="Shape" fill="#000000" fill-rule="nonzero"></path>
    <path d="M13.9702286,6.99342857 L13.9702286,9.51207273 C13.9702286,9.65948571 13.9101506,9.96001558 13.7381455,10.2468935 C13.4523896,10.7234961 12.9369818,11.0100935 11.9754078,11.0100935 C11.0138338,11.0100935 10.498426,10.7235429 10.2126701,10.2468935 C10.0406649,9.96001558 9.98058701,9.65948571 9.98058701,9.51207273 L9.98058701,6.99342857 L7.98576623,6.99342857 L7.98576623,9.51207273 C7.98576623,9.98848831 8.1127013,10.6237714 8.50173506,11.2726597 C9.15104416,12.3556987 10.3187532,13.0049143 11.975361,13.0049143 C13.6319688,13.0049143 14.7996779,12.3556987 15.448987,11.2726597 C15.8380208,10.6237714 15.9649558,9.98848831 15.9649558,9.51207273 L15.9649558,6.99342857 L13.9702286,6.99342857 Z" id="Shape" fill="#000000" fill-rule="nonzero"></path>
</g>
</svg>
